Coordinates
version=1
nRows=7
nColumns=40
inDegrees=yes

Units are S.I. units (second, meters, Newtons, ...)
Angles are in degrees.

endheader
time	pelvis_tilt	pelvis_list	pelvis_rotation	pelvis_tx	pelvis_ty	pelvis_tz	hip_flexion_r	hip_adduction_r	hip_rotation_r	knee_angle_r	knee_angle_r_beta	ankle_angle_r	subtalar_angle_r	mtp_angle_r	hip_flexion_l	hip_adduction_l	hip_rotation_l	knee_angle_l	knee_angle_l_beta	ankle_angle_l	subtalar_angle_l	mtp_angle_l	lumbar_extension	lumbar_bending	lumbar_rotation	arm_flex_r	arm_add_r	arm_rot_r	elbow_flex_r	pro_sup_r	wrist_flex_r	wrist_dev_r	arm_flex_l	arm_add_l	arm_rot_l	elbow_flex_l	pro_sup_l	wrist_flex_l	wrist_dev_l
     35.60750000	     -6.92520563	     -5.14433732	      0.59972669	      1.06836958	      0.91931146	      0.45748337	     -1.56195317	     -0.82585277	    -14.48000200	     23.25170075	     23.25170075	     13.85511159	      5.69956507	    -12.23881195	     29.85950347	     -7.14527896	     -4.34164733	     27.18066343	     27.18066343	      8.03675489	    -16.93939480	     10.36063515	     -6.61549373	      5.35219587	      4.04019667	     37.63843367	    -15.67841233	     -6.73798015	    103.37312058	     44.56615116	      0.00000000	      0.00000000	    -15.66578525	     -6.23066241	     16.12638336	     22.55804257	     43.27393051	      0.00000000	      0.00000000
     35.61885714	     -6.93304279	     -5.11305112	      0.54250830	      1.06826469	      0.92087112	      0.45448527	     -0.20504544	     -1.42403620	    -13.59346109	     26.45409978	     26.45409978	     11.41969087	      2.92774291	    -16.03165198	     29.00700748	     -6.94832307	     -4.52575899	     26.83199186	     26.83199186	      8.41575410	    -16.86739041	     10.06799928	     -6.65705499	      5.45526593	      4.24526767	     35.24667284	    -16.08258213	     -7.28870476	    103.70746058	     44.60218017	      0.00000000	      0.00000000	    -14.62336090	     -6.52592593	     15.54848667	     23.95084329	     43.51929283	      0.00000000	      0.00000000
     35.63021429	     -6.79410091	     -4.92371253	      0.47931700	      1.06806257	      0.92242192	      0.45142004	      1.31549914	     -2.41101013	    -13.20744698	     30.37428686	     30.37428686	      9.87676497	      1.53709675	    -16.72252525	     27.98276943	     -6.61500500	     -4.88218502	     26.49443358	     26.49443358	      8.86032067	    -16.64841350	      9.87737673	     -6.84104326	      5.39836459	      3.86851716	     33.26479169	    -15.95698522	     -7.09192691	    102.87281462	     44.61862165	      0.00000000	      0.00000000	    -13.46618238	     -6.68276071	     15.41675331	     24.47649375	     43.57735234	      0.00000000	      0.00000000
     35.64157143	     -6.81812988	     -4.94706470	      0.41814736	      1.06752541	      0.92350535	      0.44871117	      3.21542272	     -2.90441118	    -12.18453312	     34.35516641	     34.35516641	      7.52493815	     -1.45648145	    -17.96556818	     27.23250232	     -6.47818000	     -4.98982805	     26.24440152	     26.24440152	      9.19002660	    -16.60737723	      9.56848089	     -6.82465637	      5.51643163	      3.84251399	     31.04775188	    -16.15885744	     -7.41582282	    101.66692957	     44.67198155	      0.00000000	      0.00000000	    -12.25267501	     -6.97487899	     14.92264538	     25.70230373	     43.72407233	      0.00000000	      0.00000000
     35.65292857	     -6.67078203	     -4.77150493	      0.37026068	      1.06694353	      0.92456586	      0.44588784	      5.05953056	     -3.80209287	    -11.68806944	     38.55647216	     38.55647216	      5.39262868	     -3.23531697	    -18.26171315	     26.24371373	     -6.15905033	     -5.32262402	     25.92991682	     25.92991682	      9.64549537	    -16.37395313	      9.33234023	     -7.07309903	      5.48388594	      3.48207805	     29.01683280	    -16.02253134	     -7.34645529	    100.59499492	     44.69937835	      0.00000000	      0.00000000	    -10.94173908	     -7.22690341	     14.67092966	     26.49537740	     43.79948876	      0.00000000	      0.00000000
     35.66428571	     -6.66223296	     -4.79770728	      0.32800469	      1.06596469	      0.92526298	      0.44337213	      7.19433669	     -4.22651525	    -10.77393420	     42.68089618	     42.68089618	      2.87210301	     -5.95120502	    -18.00690517	     25.52300681	     -6.04102675	     -5.43456663	     25.72385696	     25.72385696	      9.98694586	    -16.26470820	      9.03992814	     -7.15158104	      5.62319361	      3.42550280	     26.84903574	    -16.16183912	     -7.70027822	     98.80667516	     44.76498275	      0.00000000	      0.00000000	     -9.60262157	     -7.53781892	     14.19076940	     27.78442974	     43.91678384	      0.00000000	      0.00000000
     35.67564286	     -6.48931608	     -4.75364193	      0.27626774	      1.06494961	      0.92584758	      0.44100778	      9.23437056	     -4.69045080	     -9.96538661	     46.78628354	     46.78628354	      0.67358646	     -8.34071244	    -16.59552841	     24.69114267	     -5.88841028	     -5.63166675	     25.66113031	     25.66113031	     10.30108838	    -16.17527142	      8.32525607	     -7.39876053	      5.70145436	      3.04115836	     24.98112859	    -15.58883433	     -8.44474756	     96.27819470	     44.88799010	      0.00000000	      0.00000000	     -8.64461354	     -8.01178089	     12.55093605	     30.32632146	     44.28070949	      0.00000000	      0.00000000
